<svg id="svgOutput" xmlns="http://www.w3.org/2000/svg" xmlns:xlink="http://www.w3.org/1999/xlink" xmlns:ev="http://www.w3.org/2001/xml-events" version="1.1" baseprofile="full"><style> /*  */body &gt; * {
  text-align: center;
}

table, button, svg, textarea {
  width: 100%;
  height: 100%;
}

td {
  border: 1px solid #888;
}

.st-node {
  stroke: #000;
}

.st-node.atomic {
  stroke-width: 3px;
  fill: #fff;
}

.st-node.compound {
  stroke-opacity: 0.5;
  fill-opacity: 0.2;
  fill: #000;
}

text {
  font-family: sans-serif;
}

.st-link {
  stroke: #333;
  stroke-width: 3px;
  stroke-opacity: 0.5;
  fill: none;
  cursor: pointer;
}

.st-port {
  stroke: #000;
  fill: none;
  z-index: 42;
}

.st-port.out {
  fill: darkred;
}

.st-port.in {
  fill: green;
}
/*  */ </style><g><path class="st-link" d="M 96.484375 51 L 96.484375 76 L 96.70833333333336 76 L 96.70833333333336 103.5 "></path><path class="st-link" d="M 409.0833333333333 51 L 409.0833333333333 103.5 "></path><path class="st-link" d="M 628.0520833333333 51 L 628.0520833333333 76 L 685.6458333333333 76 L 685.6458333333333 103.5 "></path><path class="st-link" d="M 873.4947916666666 212.66666666666669 L 873.4947916666666 400.5 "></path><path class="st-link" d="M 1073.6927083333333 51 L 1073.6927083333333 76 L 883.375 76 L 883.375 168.66666666666669 "></path><path class="st-link" d="M 863.6145833333333 51 L 863.6145833333333 168.66666666666669 "></path><path class="st-link" d="M 1035.1197916666665 348 L 1035.1197916666665 373 L 1129.765625 373 L 1129.765625 400.5 "></path><rect class="st-node compound" width="1205.1197916666665" height="563"></rect><g transform="translate(812.2135416666666 403)"><path class="st-link" d="M 87.171875 131 L 87.171875 145.5 "></path><path class="st-link" d="M 61.28125 -2.5 L 61.28125 87 "></path><path class="st-link" d="M 317.55208333333337 -2.5 L 317.55208333333337 37 L 113.0625 37 L 113.0625 87 "></path><path class="st-link" d="M 290.625 131 L 290.6249999999999 145.5 "></path><path class="st-link" d="M 61.28125 -2.5 L 61.28125 62 L 263.6979166666667 62 L 263.6979166666667 87 "></path><path class="st-link" d="M 317.55208333333337 -2.5 L 317.55208333333337 87 "></path><rect class="st-node compound" width="380.90625" height="143"></rect><rect class="st-port in" x="315.05208333333337" y="-5" width="5" height="5"></rect><rect class="st-port in" x="58.78125" y="-5" width="5" height="5"></rect><rect class="st-port out" x="288.125" y="143" width="5" height="5"></rect><rect class="st-port out" x="84.671875" y="143" width="5" height="5"></rect><g transform="translate(212.34375 92)"><rect class="st-node atomic" width="156.5625" height="34"></rect><rect class="st-port in" x="102.70833333333334" y="-5" width="5" height="5"></rect><rect class="st-port in" x="48.85416666666668" y="-5" width="5" height="5"></rect><rect class="st-port out" x="75.78125" y="34" width="5" height="5"></rect><text x="39.140625" y="25.5" width="78.28125" height="17">test_2:le_0</text></g><g transform="translate(12 92)"><rect class="st-node atomic" width="150.34375" height="34"></rect><rect class="st-port in" x="98.5625" y="-5" width="5" height="5"></rect><rect class="st-port in" x="46.78125" y="-5" width="5" height="5"></rect><rect class="st-port out" x="72.671875" y="34" width="5" height="5"></rect><text x="37.5859375" y="25.5" width="75.171875" height="17">test_2:+_1</text></g><text x="168.6640625" y="17" width="43.578125" height="17">test_2</text></g><g transform="translate(950.6354166666666 309)"><rect class="st-node atomic" width="168.96875" height="34"></rect><rect class="st-port out" x="81.984375" y="34" width="5" height="5"></rect><text x="42.2421875" y="25.5" width="84.484375" height="17">const(10)_3</text></g><g transform="translate(846.3541666666666 173.66666666666669)"><rect class="st-node atomic" width="54.28125" height="34"></rect><rect class="st-port in" x="14.760416666666671" y="-5" width="5" height="5"></rect><rect class="st-port in" x="34.520833333333336" y="-5" width="5" height="5"></rect><rect class="st-port out" x="24.640625" y="34" width="5" height="5"></rect><text x="13.5703125" y="25.5" width="27.140625" height="17">+_4</text></g><g transform="translate(788.0208333333333 12)"><rect class="st-node atomic" width="151.1875" height="34"></rect><rect class="st-port out" x="73.09375" y="34" width="5" height="5"></rect><text x="37.796875" y="25.5" width="75.59375" height="17">const(3)_5</text></g><g transform="translate(989.2083333333333 12)"><rect class="st-node atomic" width="168.96875" height="34"></rect><rect class="st-port out" x="81.984375" y="34" width="5" height="5"></rect><text x="42.2421875" y="25.5" width="84.484375" height="17">const(20)_6</text></g><g transform="translate(12 106)"><path class="st-link" d="M 394.703125 225 L 394.703125 239.5 "></path><path class="st-link" d="M 356.51041666666663 106 L 356.51041666666663 181 "></path><path class="st-link" d="M 84.70833333333336 -2.5 L 84.70833333333336 37 L 315.9375 37 L 315.9375 62 "></path><path class="st-link" d="M 397.0833333333333 -2.5 L 397.0833333333333 62 "></path><path class="st-link" d="M 673.6458333333333 -2.5 L 673.6458333333333 37 L 771.3541666666666 37 L 771.3541666666666 156 L 432.8958333333333 156 L 432.8958333333333 181 "></path><path class="st-link" d="M 122.3125 225 L 122.3125 239.5 "></path><path class="st-link" d="M 84.70833333333336 -2.5 L 84.70833333333336 181 "></path><path class="st-link" d="M 636.0416666666666 106 L 636.0416666666666 131 L 159.91666666666669 131 L 159.91666666666669 181 "></path><path class="st-link" d="M 397.0833333333333 -2.5 L 397.0833333333333 37 L 598.4375 37 L 598.4375 62 "></path><path class="st-link" d="M 673.6458333333333 -2.5 L 673.6458333333333 62 "></path><rect class="st-node compound" width="784.3541666666666" height="237"></rect><rect class="st-port in" x="671.1458333333333" y="-5" width="5" height="5"></rect><rect class="st-port in" x="394.5833333333333" y="-5" width="5" height="5"></rect><rect class="st-port in" x="82.20833333333336" y="-5" width="5" height="5"></rect><rect class="st-port out" x="119.8125" y="237" width="5" height="5"></rect><rect class="st-port out" x="392.203125" y="237" width="5" height="5"></rect><g transform="translate(12 186)"><rect class="st-node atomic" width="220.625" height="34"></rect><rect class="st-port in" x="145.41666666666669" y="-5" width="5" height="5"></rect><rect class="st-port in" x="70.20833333333336" y="-5" width="5" height="5"></rect><rect class="st-port out" x="107.8125" y="34" width="5" height="5"></rect><text x="55.15625" y="25.5" width="110.3125" height="17">test2_11:add_7</text></g><g transform="translate(525.7291666666666 67)"><rect class="st-node atomic" width="220.625" height="34"></rect><rect class="st-port in" x="145.41666666666669" y="-5" width="5" height="5"></rect><rect class="st-port in" x="70.20833333333336" y="-5" width="5" height="5"></rect><rect class="st-port out" x="107.8125" y="34" width="5" height="5"></rect><text x="55.15625" y="25.5" width="110.3125" height="17">test2_11:add_8</text></g><g transform="translate(282.625 186)"><rect class="st-node atomic" width="224.15625" height="34"></rect><rect class="st-port in" x="147.77083333333331" y="-5" width="5" height="5"></rect><rect class="st-port in" x="71.38541666666664" y="-5" width="5" height="5"></rect><rect class="st-port out" x="109.578125" y="34" width="5" height="5"></rect><text x="56.0390625" y="25.5" width="112.078125" height="17">test2_11:less_9</text></g><g transform="translate(237.29166666666663 67)"><rect class="st-node atomic" width="238.4375" height="34"></rect><rect class="st-port in" x="157.29166666666669" y="-5" width="5" height="5"></rect><rect class="st-port in" x="76.14583333333336" y="-5" width="5" height="5"></rect><rect class="st-port out" x="116.71875" y="34" width="5" height="5"></rect><text x="59.609375" y="25.5" width="119.21875" height="17">test2_11:add_10</text></g><text x="361.4895833333333" y="17" width="61.375" height="17">test2_11</text></g><g transform="translate(543.5677083333333 12)"><rect class="st-node atomic" width="168.96875" height="34"></rect><rect class="st-port out" x="81.984375" y="34" width="5" height="5"></rect><text x="42.2421875" y="25.5" width="84.484375" height="17">const(1)_12</text></g><g transform="translate(324.5989583333333 12)"><rect class="st-node atomic" width="168.96875" height="34"></rect><rect class="st-port out" x="81.984375" y="34" width="5" height="5"></rect><text x="42.2421875" y="25.5" width="84.484375" height="17">const(2)_13</text></g><g transform="translate(12 12)"><rect class="st-node atomic" width="168.96875" height="34"></rect><rect class="st-port out" x="81.984375" y="34" width="5" height="5"></rect><text x="42.2421875" y="25.5" width="84.484375" height="17">const(3)_14</text></g></g></svg>

