<svg id="svgOutput" xmlns="http://www.w3.org/2000/svg" xmlns:xlink="http://www.w3.org/1999/xlink" xmlns:ev="http://www.w3.org/2001/xml-events" version="1.1" baseprofile="full"><style> /*  */body &gt; * {
  text-align: center;
}

table, button, svg, textarea {
  width: 100%;
  height: 100%;
}

td {
  border: 1px solid #888;
}

.st-node {
  stroke: #000;
}

.st-node.atomic {
  stroke-width: 3px;
  fill: #fff;
}

.st-node.compound {
  stroke-opacity: 0.5;
  fill-opacity: 0.2;
  fill: #000;
}

text {
  font-family: sans-serif;
}

.st-link {
  stroke: #333;
  stroke-width: 3px;
  stroke-opacity: 0.5;
  fill: none;
  cursor: pointer;
}

.st-port {
  stroke: #000;
  fill: none;
  z-index: 42;
}

.st-port.out {
  fill: darkred;
}

.st-port.in {
  fill: green;
}
/*  */ </style><g><path class="st-link" d="M 1069.3020833333335 367 L 1069.3020833333333 417 "></path><path class="st-link" d="M 1055.71875 273 L 1055.71875 323 "></path><path class="st-link" d="M 1257.765625 273 L 1257.765625 298 L 1082.8854166666667 298 L 1082.8854166666667 323 "></path><path class="st-link" d="M 1257.765625 179 L 1257.765625 229 "></path><rect class="st-node compound" width="1339.984375" height="468"></rect><g transform="translate(1245.3125 140)"><rect class="st-node atomic" width="24.90625" height="34"></rect><rect class="st-port out" x="9.953125" y="34" width="5" height="5"></rect><text x="6.2265625" y="25.5" width="12.453125" height="17">in</text></g><g transform="translate(1187.546875 234)"><rect class="st-node atomic" width="140.4375" height="34"></rect><rect class="st-port in" x="67.71875" y="-5" width="5" height="5"></rect><rect class="st-port out" x="67.71875" y="34" width="5" height="5"></rect><text x="35.109375" y="25.5" width="70.21875" height="17">strToNum</text></g><g transform="translate(973.890625 234)"><rect class="st-node atomic" width="163.65625" height="34"></rect><rect class="st-port out" x="79.328125" y="34" width="5" height="5"></rect><text x="40.9140625" y="25.5" width="81.828125" height="17">lambda_inc</text></g><g transform="translate(202.46875 17)"><path class="st-link" d="M 144.75520833333337 145 L 144.75520833333337 159.5 "></path><path class="st-link" d="M 106.265625 51 L 106.265625 101 "></path><path class="st-link" d="M 978.34375 -2.5 L 978.34375 76 L 183.24479166666669 76 L 183.24479166666669 101 "></path><path class="st-link" d="M 144.75520833333337 145 L 144.75520833333337 159.5 "></path><path class="st-link" d="M 106.265625 51 L 106.265625 101 "></path><path class="st-link" d="M 978.34375 -2.5 L 978.34375 76 L 183.24479166666669 76 L 183.24479166666669 101 "></path><rect class="st-node compound" width="992.84375" height="157"></rect><rect class="st-port in" x="975.84375" y="-5" width="5" height="5"></rect><rect class="st-port out" x="142.25520833333337" y="157" width="5" height="5"></rect><g transform="translate(250.53125 17)"><rect class="st-node atomic" width="305.96875" height="34"></rect><rect class="st-port in" x="228.2265625" y="-5" width="5" height="5"></rect><rect class="st-port in" x="150.484375" y="-5" width="5" height="5"></rect><rect class="st-port out" x="72.7421875" y="-5" width="5" height="5"></rect><text x="76.4921875" y="25.5" width="152.984375" height="17">inc_lambda:math/add</text></g><g transform="translate(606.5 17)"><rect class="st-node atomic" width="346.84375" height="34"></rect><rect class="st-port out" x="170.921875" y="-5" width="5" height="5"></rect><text x="86.7109375" y="25.5" width="173.421875" height="17">inc_lambda:math/const1</text></g><g transform="translate(31.786458333333357 106)"><rect class="st-node atomic" width="225.9375" height="34"></rect><rect class="st-port in" x="148.95833333333331" y="-5" width="5" height="5"></rect><rect class="st-port in" x="71.97916666666664" y="-5" width="5" height="5"></rect><rect class="st-port out" x="110.46875" y="34" width="5" height="5"></rect><text x="56.484375" y="25.5" width="112.96875" height="17">inc_lambda:add</text></g><g transform="translate(12 12)"><rect class="st-node atomic" width="188.53125" height="34"></rect><rect class="st-port out" x="91.765625" y="34" width="5" height="5"></rect><text x="47.1328125" y="25.5" width="94.265625" height="17">inc_lambda:c</text></g><text x="455.5078125" y="17" width="81.828125" height="17">inc_lambda</text></g><g transform="translate(1031.0520833333335 328)"><rect class="st-node atomic" width="76.5" height="34"></rect><rect class="st-port in" x="22.16666666666666" y="-5" width="5" height="5"></rect><rect class="st-port in" x="49.33333333333333" y="-5" width="5" height="5"></rect><rect class="st-port out" x="35.75" y="34" width="5" height="5"></rect><text x="19.125" y="25.5" width="38.25" height="17">apply</text></g><g transform="translate(12 78.5)"><rect class="st-node atomic" width="140.46875" height="34"></rect><rect class="st-port in" x="91.97916666666666" y="-5" width="5" height="5"></rect><rect class="st-port out" x="43.48958333333332" y="-5" width="5" height="5"></rect><text x="35.1171875" y="25.5" width="70.234375" height="17">numToStr</text></g><g transform="translate(1047.0677083333333 422)"><rect class="st-node atomic" width="44.46875" height="34"></rect><rect class="st-port in" x="19.734375" y="-5" width="5" height="5"></rect><text x="11.1171875" y="25.5" width="22.234375" height="17">out</text></g></g></svg>

